<svg width="24" height="24" viewBox="0 0 24 24" fill="none" xmlns="http://www.w3.org/2000/svg">
   <mask id="mask0_6411_119" style="mask-type:alpha" maskUnits="userSpaceOnUse" x="0" y="0"
      width="24" height="24">
      <circle cx="12" cy="12" r="12" fill="#ED1F24" />
   </mask>
   <g mask="url(#mask0_6411_119)">
      <path
         d="M26.6667 0H-2.66667C-3.40267 0 -4 0.597333 -4 1.33333V22.6667C-4 23.4027 -3.40267 24 -2.66667 24H26.6667C27.4027 24 28 23.4027 28 22.6667V1.33333C28 0.597333 27.4027 0 26.6667 0Z"
         fill="#002781" />
      <path
         d="M28 1.33333C28 0.597333 27.4027 0 26.6667 0H23.226L14.6667 6.584V0H9.33333V6.584L0.774001 0H-2.66667C-3.40267 0 -4 0.597333 -4 1.33333V3.05733L4.15933 9.33333H-4V14.6667H4.15933L-4 20.9433V22.6667C-4 23.4027 -3.40267 24 -2.66667 24H0.774001L9.33333 17.416V24H14.6667V17.416L23.226 24H26.6667C27.4027 24 28 23.4027 28 22.6667V20.9433L19.8407 14.6667H28V9.33333H19.8407L28 3.05733V1.33333Z"
         fill="#E6E6E6" />
      <path
         d="M28 10.6667H13.3333V0H10.6667V10.6667H-4V13.3333H10.6667V24H13.3333V13.3333H28V10.6667Z"
         fill="#D10D24" />
      <path
         d="M27.3341 0.205566L15.4668 9.33423H17.6535L28.0001 1.37557V1.33423C28.0001 0.846233 27.7248 0.438233 27.3341 0.205566Z"
         fill="#D10D24" />
      <path
         d="M17.6535 14.6665H15.4668L27.3341 23.7952C27.7248 23.5625 28.0001 23.1545 28.0001 22.6665V22.6252L17.6535 14.6665Z"
         fill="#D10D24" />
      <path
         d="M6.34667 14.6665L-4 22.6252V22.6665C-4 23.1545 -3.72467 23.5625 -3.334 23.7952L8.53333 14.6665H6.34667Z"
         fill="#D10D24" />
      <path
         d="M6.34667 9.33423H8.53333L-3.334 0.205566C-3.72467 0.438233 -4 0.846233 -4 1.33423V1.37557L6.34667 9.33423Z"
         fill="#D10D24" />
   </g>
</svg>
